HIERARCHY
ROOT Hips
{
	OFFSET -0.179506 -22.333345 2.821913
	CHANNELS 6 Xposition Yposition Zposition Zrotation Yrotation Xrotation 
	JOINT LeftUpLeg
	{
		OFFSET 6.951974 -9.140623 -0.681533
		CHANNELS 3 Zrotation Yrotation Xrotation
		JOINT LeftLeg
		{
			OFFSET 3.427654 -37.519855 -0.449580
			CHANNELS 3 Zrotation Yrotation Xrotation
			JOINT LeftFoot
			{
				OFFSET -1.359570 -39.796059 -4.369333
				CHANNELS 3 Zrotation Yrotation Xrotation
				JOINT LeftToe
				{
					OFFSET 2.635814 -5.579078 11.928840
					CHANNELS 3 Zrotation Yrotation Xrotation
					End Site
					{
						OFFSET 0.000000 0.000000 0.000000
					}
				}
			}
		}
	}
	JOINT RightUpLeg
	{
		OFFSET -6.767048 -9.052170 -0.431982
		CHANNELS 3 Zrotation Yrotation Xrotation
		JOINT RightLeg
		{
			OFFSET -3.829005 -38.256897 -0.885003
			CHANNELS 3 Zrotation Yrotation Xrotation
			JOINT RightFoot
			{
				OFFSET 1.577377 -39.841461 -4.231180
				CHANNELS 3 Zrotation Yrotation Xrotation
				JOINT RightToe
				{
					OFFSET -2.537174 -4.814398 12.334795
					CHANNELS 3 Zrotation Yrotation Xrotation
					End Site
					{
						OFFSET 0.000000 0.000000 0.000000
					}
				}
			}
		}
	}
	JOINT Spine
	{
		OFFSET -0.253288 10.896323 -2.669631
		CHANNELS 3 Zrotation Yrotation Xrotation
		JOINT Spine1
		{
			OFFSET 0.548704 13.518043 0.109247
			CHANNELS 3 Zrotation Yrotation Xrotation
			JOINT Spine2
			{
				OFFSET 0.145701 5.292222 2.542457
				CHANNELS 3 Zrotation Yrotation Xrotation
				JOINT Neck
				{
					OFFSET -0.277840 21.387037 -4.285703
					CHANNELS 3 Zrotation Yrotation Xrotation
					JOINT Head
					{
						OFFSET 0.515184 6.496960 5.134897
						CHANNELS 3 Zrotation Yrotation Xrotation
						End Site
						{
							OFFSET 0.000000 0.000000 0.000000
						}
					}
				}
				JOINT LeftShoulder
				{
					OFFSET 7.884473 12.174932 -3.408961
					CHANNELS 3 Zrotation Yrotation Xrotation
					JOINT LeftArm
					{
						OFFSET 9.097692 3.046888 -0.886815
						CHANNELS 3 Zrotation Yrotation Xrotation
						JOINT LeftForeArm
						{
							OFFSET 25.961220 -1.277207 -2.745643
							CHANNELS 3 Zrotation Yrotation Xrotation
							JOINT LeftHand
							{
								OFFSET 24.923361 0.898606 -0.117091
								CHANNELS 3 Zrotation Yrotation Xrotation
								End Site
								{
									OFFSET 0.000000 0.000000 0.000000
								}
							}
						}
					}
				}
				JOINT RightShoulder
				{
					OFFSET -8.175920 11.883285 -3.861528
					CHANNELS 3 Zrotation Yrotation Xrotation
					JOINT RightArm
					{
						OFFSET -9.601238 3.255117 -0.914307
						CHANNELS 3 Zrotation Yrotation Xrotation
						JOINT RightForeArm
						{
							OFFSET -25.374195 -1.332924 -2.140099
							CHANNELS 3 Zrotation Yrotation Xrotation
							JOINT RightHand
							{
								OFFSET -25.529810 0.777228 -0.555919
								CHANNELS 3 Zrotation Yrotation Xrotation
								End Site
								{
									OFFSET 0.000000 0.000000 0.000000
								}
							}
						}
					}
				}
			}
		}
	}
}
MOTION
Frames: 7
Frame Time: 0.033333
-9.715772 19.801287 96.103531 175.053963 0.016338 87.662865 -3.335220 -0.459865 5.670993 2.965150 -9.483805 -7.482621 1.117455 8.145043 -0.787598 nan nan nan 2.927835 -2.049598 2.394359 0.087197 -0.932930 -0.536803 4.569217 -7.584951 -1.870926 nan nan nan -0.010970 2.099733 3.763244 1.753670 -2.685094 2.785665 1.045743 -0.404432 -3.341921 -2.777096 -2.186225 -2.592165 3.566024 -1.559117 -3.705316 -23.697366 -0.423307 0.324099 -59.151703 -3.719353 13.999462 6.879780 -22.646975 1.757900 -9.573919 -10.096900 1.155086 24.333093 6.035819 0.641139 57.258489 3.679155 16.346147 -6.734441 22.818216 3.910383 11.176788 7.958374 2.479612 
-9.741724 20.131054 95.966698 175.851109 0.017424 87.221576 -3.542036 -0.797291 6.463875 3.398803 -9.497064 -7.826597 0.942386 7.763321 -0.492494 nan nan nan 2.842182 -2.329357 3.656724 0.173437 -1.564439 -1.523572 4.569245 -7.646155 -1.914027 nan nan nan 0.068274 1.905739 3.645536 1.752819 -3.006210 2.551840 1.311182 -0.875691 -2.369165 -3.305558 -1.816298 -1.864389 3.758318 -1.630265 -5.382373 -22.816761 -1.015006 0.745144 -61.381454 -4.790686 11.993223 3.184584 -19.200325 -3.187959 -10.760748 -12.168185 -6.640555 22.829943 6.269383 0.395440 58.475478 4.156780 16.332767 -6.422870 21.999958 2.883500 12.098097 8.700073 0.786559 
-9.718921 20.130219 95.910980 175.815400 0.015703 87.319554 -3.504649 -0.805088 6.307411 3.344135 -9.472989 -7.805739 0.900632 7.768234 -0.354191 nan nan nan 2.904130 -2.238434 3.489625 0.095640 -1.559523 -1.471954 4.555174 -7.698841 -1.891672 nan nan nan 0.068570 1.894624 3.703601 1.714379 -2.979035 2.384847 1.317523 -0.868403 -2.352312 -3.270967 -1.849744 -1.839442 3.840222 -1.546232 -5.368159 -22.788563 -1.067233 0.728700 -61.392551 -4.875793 12.013864 3.117700 -18.923544 -3.289103 -10.807587 -12.323079 -6.740429 22.721706 6.284166 0.387583 58.600313 4.153790 16.395538 -6.406917 21.972590 2.936083 12.113244 8.775649 0.687677 
-9.731255 20.143391 95.865631 175.893542 0.039903 87.476675 -3.604716 -0.947901 6.100890 3.613675 -9.559738 -7.774735 0.829545 7.768742 -0.124938 nan nan nan 2.981354 -2.072041 3.361260 -0.005094 -1.679438 -1.572402 4.768482 -7.839573 -1.831203 nan nan nan 0.100746 1.959771 3.590196 1.818204 -3.051764 2.258416 1.484955 -0.865490 -2.251176 -3.784724 -1.687885 -1.450608 3.942972 -1.636231 -5.937363 -22.614738 -2.344432 0.976416 -61.677391 -5.036881 12.387397 2.900185 -17.447502 -4.779108 -11.198933 -13.010820 -7.390801 22.008711 6.414028 0.147068 59.147701 3.914920 16.353772 -6.530634 21.949293 2.982985 12.646684 8.961384 0.517898 
-9.751616 20.163509 95.816673 176.072813 0.047109 87.508794 -3.752757 -1.120762 6.107367 3.958084 -9.863506 -7.836802 0.877698 7.858222 0.043146 nan nan nan 2.994552 -1.948554 3.482280 -0.037856 -1.683073 -1.806145 5.040583 -8.083370 -1.716988 nan nan nan 0.057969 2.022042 3.543303 1.810532 -2.945958 2.363232 1.391997 -0.791282 -2.049011 -3.929362 -2.579933 -1.075557 4.120648 -2.143375 -7.328226 -22.936814 -2.421570 0.857659 -61.037290 -4.724355 12.634510 2.528816 -18.571617 -4.706582 -11.276745 -13.594438 -8.352379 21.717520 5.868480 -0.804428 59.393980 3.417553 16.271652 -6.208731 22.435821 3.525652 13.127188 8.623753 0.712452 
-9.968488 20.281258 95.769920 177.076230 -0.135353 87.799268 -4.405171 -2.195028 5.798299 4.650583 -10.174342 -7.734193 1.204613 7.697016 0.305998 nan nan nan 2.385773 -2.243046 3.652230 0.422659 -1.988099 -2.468430 5.474842 -8.453547 -1.330862 nan nan nan 0.202095 2.251508 2.933085 1.702304 -3.205992 2.072757 1.413966 -1.420663 -1.325950 -4.250574 -2.960410 -0.870938 4.157217 -2.226916 -7.908082 -22.705641 -2.586689 0.962664 -61.556979 -5.157460 12.640664 2.434766 -18.011279 -4.758486 -11.741464 -14.763782 -9.500419 20.888455 5.228741 -1.355056 59.976386 3.265554 16.217081 -6.292986 22.612877 3.790045 13.405646 8.760382 0.422483 
-9.978907 20.268074 95.772652 177.166738 -0.197873 87.793369 -4.473283 -2.314925 5.778585 4.620032 -10.195296 -7.717188 1.265558 7.674264 0.351601 nan nan nan 2.286304 -2.252094 3.683992 0.449614 -2.096898 -2.515074 5.624034 -8.500758 -1.099098 nan nan nan 0.172569 2.244361 2.999270 1.636277 -3.238507 1.806565 1.445594 -1.491302 -1.037942 -4.322283 -3.041088 -0.792607 4.207995 -2.205499 -8.087971 -22.511900 -2.588923 1.002498 -61.786901 -5.228129 12.582860 2.601967 -17.875535 -4.662449 -11.811404 -15.034475 -9.805268 20.679464 5.277122 -1.373426 60.169905 3.189411 16.277866 -6.526413 22.716080 3.927001 13.462713 9.056591 0.230566 
